<?xml version="1.0" encoding="iso-8859-1"?>
<!-- Generator: Adobe Illustrator 19.0.0, SVG Export Plug-In . SVG Version: 6.00 Build 0)  -->
<svg version="1.1" id="Capa_1" xmlns="http://www.w3.org/2000/svg" xmlns:xlink="http://www.w3.org/1999/xlink" x="0px" y="0px"
	 viewBox="0 0 463 463" style="enable-background:new 0 0 463 463;" xml:space="preserve">
<path d="M392.804,136.804c2.782-2.782,4.779-6.14,5.884-9.804H447.5c8.547,0,15.5-6.953,15.5-15.5v-16c0-8.547-6.953-15.5-15.5-15.5
	H383V15.5C383,6.953,376.047,0,367.5,0h-16C342.953,0,336,6.953,336,15.5v48.813c-3.664,1.104-7.021,3.102-9.804,5.883
	c-2.782,2.782-4.779,6.14-5.884,9.804H255V15.5C255,6.953,248.047,0,239.5,0h-16C214.953,0,208,6.953,208,15.5v48.813
	c-3.664,1.104-7.021,3.102-9.804,5.883c-2.782,2.782-4.779,6.14-5.884,9.804H127V15.5C127,6.953,120.047,0,111.5,0h-16
	C86.953,0,80,6.953,80,15.5v48.813c-3.664,1.104-7.021,3.102-9.804,5.883c-2.782,2.782-4.779,6.14-5.884,9.804H15.5
	C6.953,80,0,86.953,0,95.5v16c0,8.547,6.953,15.5,15.5,15.5H80v65.407c-3.664,1.104-7.021,3.102-9.804,5.884
	c-2.806,2.806-4.743,6.154-5.83,9.709H15.5C6.953,208,0,214.953,0,223.5v16c0,8.547,6.953,15.5,15.5,15.5H80v65.344
	c-3.664,1.104-7.021,3.102-9.804,5.883c-2.823,2.823-4.77,6.194-5.853,9.772H15.5C6.953,336,0,342.953,0,351.5v16
	c0,8.547,6.953,15.5,15.5,15.5H80v64.5c0,8.547,6.953,15.5,15.5,15.5h16c8.547,0,15.5-6.953,15.5-15.5v-48.782
	c3.664-1.104,7.021-3.102,9.804-5.883c2.8-2.801,4.804-6.185,5.904-9.878c0.261,0.027,0.525,0.043,0.792,0.043H208v64.5
	c0,8.547,6.953,15.5,15.5,15.5h16c8.547,0,15.5-6.953,15.5-15.5v-48.782c3.664-1.104,7.021-3.102,9.804-5.883
	c2.79-2.79,4.79-6.159,5.892-9.835H336v64.5c0,8.547,6.953,15.5,15.5,15.5h16c8.547,0,15.5-6.953,15.5-15.5v-48.782
	c3.664-1.104,7.021-3.102,9.804-5.883c2.79-2.79,4.79-6.159,5.892-9.835H447.5c8.547,0,15.5-6.953,15.5-15.5v-16
	c0-8.547-6.953-15.5-15.5-15.5H383v-65.218c3.664-1.104,7.021-3.102,9.804-5.884c2.805-2.806,4.811-6.197,5.909-9.897H447.5
	c8.547,0,15.5-6.953,15.5-15.5v-16c0-8.547-6.953-15.5-15.5-15.5H383v-65.313C386.664,141.583,390.021,139.585,392.804,136.804z
	 M359.431,198.29c-2.43-2.43-5.301-4.257-8.431-5.418v-64.638l8.569,8.569c2.43,2.43,5.301,4.257,8.431,5.418v64.638L359.431,198.29
	z M359.431,326.228c-2.43-2.43-5.301-4.257-8.431-5.418v-64.482l8.57,8.57c2.43,2.43,5.301,4.258,8.43,5.419v64.481L359.431,326.228
	z M264.804,359.601L256.203,351H319.5c0.431,0,0.851-0.044,1.261-0.114c1.135,3.13,2.931,6.072,5.436,8.577l8.537,8.537H270.21
	C269.048,364.883,267.225,362.023,264.804,359.601z M142.253,368.112c-1.159-3.161-2.998-6.06-5.449-8.511L128.203,351H191.5
	c0.431,0,0.851-0.044,1.261-0.114c1.135,3.13,2.931,6.072,5.436,8.577l8.537,8.537H143.5
	C143.074,368,142.659,368.044,142.253,368.112z M103.57,264.897c2.455,2.456,5.359,4.297,8.526,5.456
	c-0.058,0.375-0.097,0.756-0.097,1.147v63.297l-8.569-8.569c-2.43-2.43-5.301-4.257-8.431-5.418v-64.482L103.57,264.897z
	 M198.196,326.228c-2.836,2.836-4.789,6.224-5.87,9.82c-0.272-0.03-0.547-0.048-0.827-0.048H127v-64.5
	c0-0.239-0.014-0.475-0.036-0.708c3.678-1.102,7.048-3.103,9.839-5.894c2.805-2.806,4.811-6.197,5.909-9.897H208v65.344
	C204.336,321.448,200.979,323.446,198.196,326.228z M103.569,136.804c2.43,2.43,5.301,4.257,8.431,5.418v64.638l-8.569-8.569
	c-2.43-2.43-5.301-4.257-8.431-5.418v-64.638L103.569,136.804z M198.196,103.431l8.569,8.569h-64.544
	c-1.161-3.129-2.988-6-5.418-8.431L128.234,95h64.544C193.939,98.129,195.766,101,198.196,103.431z M248.187,256.78
	c-2.271,0-4.404-0.884-6.01-2.489c0,0,0,0,0-0.001l-33.373-33.371c-3.314-3.314-3.314-8.708,0-12.021
	c1.656-1.657,3.833-2.486,6.01-2.486s4.354,0.829,6.01,2.486l33.373,33.373c3.314,3.313,3.314,8.706,0,12.021
	C252.591,255.896,250.457,256.78,248.187,256.78z M240,206.859l-8.569-8.569c-2.43-2.43-5.301-4.257-8.431-5.418v-64.638
	l8.569,8.569c2.43,2.43,5.301,4.257,8.431,5.418V206.859z M136.804,136.804c2.782-2.782,4.779-6.14,5.884-9.804H208v65.407
	c-3.664,1.104-7.021,3.102-9.804,5.884c-2.806,2.806-4.743,6.154-5.83,9.709H127v-65.313
	C130.664,141.583,134.021,139.585,136.804,136.804z M192.78,223c1.136,3.11,2.926,6.034,5.417,8.525l8.475,8.475h-64.487
	c-1.162-3.093-2.976-5.931-5.382-8.337L128.141,223H192.78z M223,256.327l8.57,8.57c2.455,2.456,5.359,4.297,8.526,5.456
	c-0.058,0.375-0.097,0.756-0.097,1.147v63.297l-8.569-8.569c-2.43-2.43-5.301-4.257-8.431-5.418V256.327z M326.196,326.228
	c-2.836,2.836-4.789,6.224-5.87,9.82c-0.272-0.03-0.547-0.048-0.827-0.048H255v-64.5c0-0.239-0.014-0.475-0.036-0.708
	c3.678-1.102,7.048-3.103,9.839-5.894c2.805-2.806,4.811-6.197,5.909-9.897H336v65.344
	C332.336,321.448,328.979,323.446,326.196,326.228z M270.186,240c-1.162-3.093-2.976-5.931-5.382-8.337L256.141,223h64.639
	c1.136,3.11,2.926,6.034,5.417,8.525l8.475,8.475H270.186z M326.196,198.291c-2.806,2.806-4.743,6.154-5.83,9.709H255v-65.313
	c3.664-1.104,7.021-3.102,9.804-5.883c2.782-2.782,4.779-6.14,5.884-9.804H336v65.407
	C332.336,193.511,328.979,195.509,326.196,198.291z M326.196,103.431l8.569,8.569h-64.544c-1.161-3.129-2.988-6-5.418-8.431
	L256.234,95h64.544C321.939,98.129,323.766,101,326.196,103.431z M448,95.5v16c0,0.275-0.225,0.5-0.5,0.5h-49.278
	c-1.161-3.129-2.988-6-5.418-8.431L384.234,95H447.5C447.775,95,448,95.225,448,95.5z M351.5,15h16c0.275,0,0.5,0.225,0.5,0.5
	v63.266l-8.569-8.569c-2.43-2.43-5.301-4.257-8.431-5.418V15.5C351,15.225,351.225,15,351.5,15z M336.804,80.804
	c1.656-1.657,3.833-2.486,6.01-2.486s4.354,0.829,6.01,2.486l33.373,33.373c3.314,3.313,3.314,8.706,0,12.02
	c-3.313,3.314-8.707,3.314-12.02,0l-33.373-33.373C333.489,89.51,333.489,84.117,336.804,80.804z M223.5,15h16
	c0.275,0,0.5,0.225,0.5,0.5v63.266l-8.569-8.569c-2.43-2.43-5.301-4.257-8.431-5.418V15.5C223,15.225,223.225,15,223.5,15z
	 M208.804,80.804c1.656-1.657,3.833-2.486,6.01-2.486s4.354,0.829,6.01,2.486l33.373,33.373c3.314,3.313,3.314,8.706,0,12.02
	c-3.313,3.314-8.707,3.314-12.02,0l-33.373-33.373C205.489,89.51,205.489,84.117,208.804,80.804z M95.5,15h16
	c0.275,0,0.5,0.225,0.5,0.5v63.266l-8.569-8.569c-2.43-2.43-5.301-4.257-8.431-5.418V15.5C95,15.225,95.225,15,95.5,15z
	 M80.804,80.804c1.656-1.657,3.833-2.486,6.01-2.486s4.354,0.829,6.01,2.486l33.373,33.373c3.314,3.313,3.314,8.706,0,12.02
	c-3.313,3.314-8.707,3.314-12.02,0L80.804,92.823C77.489,89.51,77.489,84.117,80.804,80.804z M15,111.5v-16
	c0-0.275,0.225-0.5,0.5-0.5h49.278c1.161,3.129,2.988,6,5.418,8.431L78.766,112H15.5C15.225,112,15,111.775,15,111.5z
	 M80.804,208.897c1.656-1.657,3.833-2.486,6.01-2.486s4.354,0.829,6.01,2.486l33.373,33.373c3.314,3.313,3.314,8.706,0,12.021
	c-1.605,1.605-3.739,2.489-6.01,2.489s-4.404-0.884-6.01-2.489c0,0,0,0,0-0.001l-33.373-33.371
	C77.489,217.604,77.489,212.211,80.804,208.897z M15,239.5v-16c0-0.275,0.225-0.5,0.5-0.5h49.28c1.136,3.11,2.926,6.034,5.417,8.525
	L78.672,240H15.5C15.225,240,15,239.775,15,239.5z M15,367.5v-16c0-0.275,0.225-0.5,0.5-0.5h49.301
	c1.138,3.087,2.921,5.988,5.396,8.463L78.735,368H15.5C15.225,368,15,367.775,15,367.5z M111.5,448h-16c-0.275,0-0.5-0.225-0.5-0.5
	v-63.235l8.57,8.57h-0.001c2.43,2.43,5.301,4.257,8.431,5.418V447.5C112,447.775,111.775,448,111.5,448z M126.196,382.228
	c-3.313,3.314-8.707,3.314-12.02,0l-33.373-33.371c-3.314-3.314-3.314-8.708,0-12.021c1.656-1.657,3.833-2.486,6.01-2.486
	s4.354,0.829,6.01,2.486l33.373,33.373C129.511,373.521,129.511,378.914,126.196,382.228z M239.5,448h-16
	c-0.275,0-0.5-0.225-0.5-0.5v-63.235l8.57,8.57h-0.001c2.43,2.43,5.301,4.257,8.431,5.418V447.5C240,447.775,239.775,448,239.5,448z
	 M254.196,382.228c-3.313,3.314-8.707,3.314-12.02,0l-33.373-33.371c-3.314-3.314-3.314-8.708,0-12.021
	c1.656-1.657,3.833-2.486,6.01-2.486s4.354,0.829,6.01,2.486l33.373,33.373C257.511,373.521,257.511,378.914,254.196,382.228z
	 M367.5,448h-16c-0.275,0-0.5-0.225-0.5-0.5v-63.235l8.57,8.57h-0.001c2.43,2.43,5.301,4.257,8.431,5.418V447.5
	C368,447.775,367.775,448,367.5,448z M382.196,382.228c-3.313,3.314-8.707,3.314-12.02,0l-33.373-33.371
	c-3.314-3.314-3.314-8.708,0-12.021c1.656-1.657,3.833-2.486,6.01-2.486s4.354,0.829,6.01,2.486l33.373,33.373
	C385.511,373.521,385.511,378.914,382.196,382.228z M448,351.5v16c0,0.275-0.225,0.5-0.5,0.5h-49.29
	c-1.161-3.117-2.984-5.977-5.406-8.399L384.203,351H447.5C447.775,351,448,351.225,448,351.5z M382.196,254.291
	c-1.605,1.605-3.739,2.489-6.01,2.489s-4.404-0.884-6.01-2.489c0,0,0,0,0-0.001l-33.373-33.371c-3.314-3.314-3.314-8.708,0-12.021
	c1.656-1.657,3.833-2.486,6.01-2.486s4.354,0.829,6.01,2.486l33.373,33.373C385.511,245.584,385.511,250.977,382.196,254.291z
	 M448,223.5v16c0,0.275-0.225,0.5-0.5,0.5h-49.314c-1.162-3.093-2.976-5.931-5.382-8.337L384.141,223H447.5
	C447.775,223,448,223.225,448,223.5z"/>
<g>
</g>
<g>
</g>
<g>
</g>
<g>
</g>
<g>
</g>
<g>
</g>
<g>
</g>
<g>
</g>
<g>
</g>
<g>
</g>
<g>
</g>
<g>
</g>
<g>
</g>
<g>
</g>
<g>
</g>
</svg>
