<?xml version="1.0" encoding="iso-8859-1"?>
<!-- Generator: Adobe Illustrator 19.0.0, SVG Export Plug-In . SVG Version: 6.00 Build 0)  -->
<svg version="1.1" id="Layer_1" xmlns="http://www.w3.org/2000/svg" xmlns:xlink="http://www.w3.org/1999/xlink" x="0px" y="0px"
	 viewBox="0 0 511.964 511.964" style="enable-background:new 0 0 511.964 511.964;" xml:space="preserve">
<g transform="translate(1 1)">
	<g>
		<g>
			<path d="M233.28,433.329l29.013-49.493c1.707-2.56,1.707-5.973,0-8.533l-28.16-47.787l28.16-48.64
				c1.707-2.56,1.707-5.973,0-8.533l-28.16-47.787l28.16-48.64c1.707-2.56,1.707-5.12,0.853-7.68l-17.067-51.2
				c-16.213-43.52-53.76-90.453-109.227-90.453c-37.547,0-72.533,17.92-104.107,53.76c-36.693,40.96-58.027,135.68,14.507,206.507
				c33.28,32.427,183.467,196.267,185.173,197.973s3.413,2.56,5.973,2.56c1.707,0,2.56,0,2.56-0.853
				c3.413-2.56,5.12-6.827,4.267-10.24L233.28,433.329z M216.213,434.182l2.56,9.387C174.4,394.929,84.8,297.649,59.2,272.902
				c-64-63.147-46.08-146.773-13.653-183.467c28.16-31.573,58.88-47.787,91.307-47.787c46.933,0,79.36,40.96,93.013,78.507
				l16.213,47.787l-28.16,49.493c-1.707,2.56-1.707,5.973,0,8.533l28.16,48.64l-28.16,48.64c-1.707,2.56-1.707,5.973,0,8.533
				l27.307,46.933l-28.16,48.64C216.213,429.062,215.36,431.622,216.213,434.182z"/>
			<path d="M478.186,78.342c-29.867-34.987-66.56-53.76-104.107-53.76c-45.227,0-88.747,35.84-110.08,89.6
				c-0.853,1.707-0.853,4.267,0,5.973l16.213,47.787l-28.16,49.493c-1.707,2.56-1.707,5.973,0,8.533l28.16,48.64l-28.16,48.64
				c-1.707,2.56-1.707,5.973,0,8.533l28.16,47.787l-28.16,48.64c-0.853,1.707-1.707,4.267-0.853,6.827l13.653,44.373
				c0.853,3.413,3.413,5.12,5.973,5.973c0,0,0.853,0,1.707,0c2.56,0,4.267-0.853,5.973-2.56S430.4,318.129,463.68,284.849
				C534.506,214.022,514.026,120.155,478.186,78.342z M451.733,272.902c-28.16,28.16-140.8,149.333-175.787,186.88l-7.68-26.453
				l28.16-49.493c1.707-2.56,1.707-5.973,0-8.533l-28.16-47.787l28.16-48.64c1.707-2.56,1.707-5.973,0-8.533l-28.16-47.787
				l28.16-48.64c1.707-2.56,1.707-5.12,0.853-7.68l-16.213-47.787c18.773-46.933,55.467-76.8,93.013-76.8
				c33.28,0,64,16.213,91.307,47.787C496.96,126.129,514.88,209.755,451.733,272.902z"/>
		</g>
	</g>
</g>
<g>
</g>
<g>
</g>
<g>
</g>
<g>
</g>
<g>
</g>
<g>
</g>
<g>
</g>
<g>
</g>
<g>
</g>
<g>
</g>
<g>
</g>
<g>
</g>
<g>
</g>
<g>
</g>
<g>
</g>
</svg>
