<?xml version="1.0" encoding="iso-8859-1"?>
<!-- Generator: Adobe Illustrator 18.1.1, SVG Export Plug-In . SVG Version: 6.00 Build 0)  -->
<svg version="1.1" id="Capa_1" xmlns="http://www.w3.org/2000/svg" xmlns:xlink="http://www.w3.org/1999/xlink" x="0px" y="0px"
	 viewBox="0 0 179.018 179.018" style="enable-background:new 0 0 179.018 179.018;" xml:space="preserve">
<g>
	<g>
		<path style="fill:#010002;" d="M179.006,119.552h-5.275v-19.5h-11.516l-15.932-27.501H80.827l-15.932,27.501H32.43v19.5h-3.98
			v11.003h3.98v6.862h22.853c1.283,6.587,7.089,11.57,14.046,11.57c6.957,0,12.757-4.988,14.04-11.57h42.365
			c1.283,6.587,7.089,11.57,14.046,11.57c6.957,0,12.763-4.988,14.046-11.57h19.917v-6.862h5.275v-11.003
			C179.018,119.552,179.006,119.552,179.006,119.552z M69.323,143.491c-4.863,0-8.825-3.95-8.825-8.825
			c0-4.857,3.956-8.825,8.825-8.825s8.819,3.962,8.819,8.825C78.142,139.541,74.192,143.491,69.323,143.491z M139.774,143.491
			c-4.857,0-8.825-3.95-8.825-8.825c0-4.857,3.962-8.825,8.825-8.825s8.825,3.962,8.825,8.825
			C148.593,139.541,144.637,143.491,139.774,143.491z M168.23,131.916h-14.416c-1.295-6.587-7.089-11.564-14.046-11.564
			c-6.957,0-12.757,4.988-14.046,11.564H83.363c-1.283-6.587-7.089-11.564-14.04-11.564s-12.757,4.988-14.046,11.564H37.925v-26.362
			h30.133l15.938-27.501h59.114l15.932,27.501h9.183v26.362H168.23z"/>
		<rect x="111.097" y="83.554" style="fill:#010002;" width="25.926" height="21.427"/>
		<polygon style="fill:#010002;" points="142.525,104.987 152.364,104.987 142.525,88.005 		"/>
		<polygon style="fill:#010002;" points="74.753,104.987 105.602,104.987 105.602,83.554 87.164,83.554 		"/>
		<path style="fill:#010002;" d="M59.985,88.268l0.638-28.695L30.425,30.031L0,60.963l30.222,29.542L59.985,88.268z M23.867,65.665
			c-2.81-2.721-3.007-6.778-0.495-10.37l-3.413-3.318l2.029-2.094l3.282,3.168c2.029-1.957,3.908-2.822,5.436-3.24l1.408,3.007
			c-1.086,0.316-3.168,0.979-5.263,3.133c-2.53,2.613-1.921,5.096-0.567,6.402c1.748,1.695,3.849,1.313,7.912-0.453
			c4.791-2.106,8.246-2.148,11.265,0.764c2.667,2.59,3.365,6.862,0.567,10.907l3.509,3.401l-2.065,2.124l-3.413-3.306
			c-1.933,1.921-4.511,3.353-6.504,3.717l-1.474-3.007c1.987-0.424,4.332-1.563,6.17-3.449c2.327-2.405,2.512-5.358,0.585-7.238
			c-1.862-1.808-4.284-1.599-7.721-0.084C30.419,67.897,26.803,68.524,23.867,65.665z"/>
	</g>
</g>
<g>
</g>
<g>
</g>
<g>
</g>
<g>
</g>
<g>
</g>
<g>
</g>
<g>
</g>
<g>
</g>
<g>
</g>
<g>
</g>
<g>
</g>
<g>
</g>
<g>
</g>
<g>
</g>
<g>
</g>
</svg>
