<?xml version="1.0" encoding="iso-8859-1"?>
<!-- Generator: Adobe Illustrator 19.0.0, SVG Export Plug-In . SVG Version: 6.00 Build 0)  -->
<svg version="1.1" id="Layer_1" xmlns="http://www.w3.org/2000/svg" xmlns:xlink="http://www.w3.org/1999/xlink" x="0px" y="0px"
	 viewBox="0 0 512.006 512.006" style="enable-background:new 0 0 512.006 512.006;" xml:space="preserve">
<g>
	<g>
		<g>
			<path d="M505.571,418.529l-34.133-8.661c-4.574-1.178-9.216,1.604-10.368,6.17c-1.161,4.565,1.604,9.207,6.17,10.368l34.133,8.67
				c0.7,0.179,1.408,0.265,2.099,0.265c3.814,0,7.287-2.577,8.269-6.434C512.901,424.34,510.137,419.689,505.571,418.529z"/>
			<path d="M449.772,454.77c-3.337-3.337-8.73-3.337-12.066,0c-3.336,3.336-3.336,8.73,0,12.066l25.6,25.6
				c1.664,1.664,3.849,2.5,6.033,2.5c2.185,0,4.369-0.836,6.033-2.5c3.337-3.337,3.337-8.73,0-12.066L449.772,454.77z"/>
			<path d="M291.299,71.068c-4.642-0.777-9.02,2.423-9.771,7.074c-0.742,4.659,2.424,9.028,7.083,9.771
				c99.772,15.957,172.194,101.001,172.194,202.223c0,112.922-91.878,204.8-204.8,204.8s-204.8-91.878-204.8-204.8
				s91.878-204.8,204.8-204.8c4.71,0,8.533-3.823,8.533-8.533V8.536c0-4.71-3.823-8.533-8.533-8.533s-8.533,3.823-8.533,8.533
				v59.896c-118.4,4.506-213.333,102.229-213.333,221.705c0,122.334,99.533,221.867,221.867,221.867s221.867-99.533,221.867-221.867
				C477.872,180.483,399.408,88.348,291.299,71.068z"/>
			<path d="M281.23,154.157c-8.09-0.35-16.478-0.555-25.225-0.555s-17.135,0.205-25.225,0.555
				c2.398-16.486,5.009-30.285,7.467-41.378c1.024-4.599-1.877-9.148-6.477-10.172c-4.582-1.058-9.165,1.877-10.18,6.485
				c-2.705,12.194-5.589,27.563-8.192,46.097c-22.98,1.741-43.008,4.787-60.262,8.465c2.773-9.182,5.623-17.152,8.363-23.876
				c1.775-4.369-0.324-9.344-4.685-11.119c-4.378-1.783-9.353,0.316-11.119,4.685c-3.814,9.378-7.859,20.975-11.605,34.876
				c-13.909,3.746-25.515,7.791-34.901,11.614c-4.361,1.775-6.46,6.75-4.685,11.119c1.766,4.361,6.733,6.451,11.119,4.685
				c6.733-2.739,14.703-5.598,23.902-8.38c-3.678,17.254-6.724,37.291-8.465,60.271c-18.526,2.603-33.903,5.487-46.097,8.192
				c-4.608,1.015-7.509,5.572-6.485,10.172c0.879,3.977,4.412,6.69,8.32,6.69c0.614,0,1.237-0.06,1.852-0.205
				c11.093-2.458,24.892-5.069,41.378-7.467c-0.35,8.09-0.555,16.469-0.555,25.225c0,8.747,0.205,17.135,0.555,25.225
				c-16.486-2.398-30.285-5.009-41.378-7.467c-4.574-1.058-9.156,1.877-10.172,6.477c-1.024,4.599,1.877,9.156,6.485,10.18
				c12.194,2.705,27.563,5.581,46.097,8.192c1.741,22.98,4.787,43.008,8.465,60.262c-9.182-2.773-17.152-5.623-23.876-8.363
				c-4.369-1.792-9.352,0.316-11.119,4.685c-1.775,4.369,0.324,9.344,4.685,11.119c9.378,3.814,20.975,7.859,34.876,11.605
				c3.78,14.02,7.868,25.719,11.716,35.166c1.348,3.302,4.54,5.308,7.902,5.308c1.075,0,2.167-0.205,3.226-0.631
				c4.361-1.783,6.451-6.758,4.668-11.128c-2.765-6.801-5.666-14.848-8.474-24.149c17.254,3.678,37.282,6.724,60.262,8.465
				c2.662,18.961,5.623,34.628,8.397,47.027c0.896,3.968,4.412,6.665,8.32,6.665c0.623,0,1.246-0.06,1.877-0.196
				c4.599-1.033,7.492-5.598,6.46-10.197c-2.526-11.29-5.205-25.378-7.671-42.266c8.098,0.35,16.478,0.555,25.233,0.555
				s17.135-0.205,25.233-0.555c-2.398,16.401-4.983,30.131-7.433,41.182c-1.015,4.599,1.886,9.148,6.494,10.172
				c0.614,0.137,1.237,0.205,1.843,0.205c3.917,0,7.45-2.714,8.328-6.699c2.688-12.143,5.555-27.452,8.141-45.892
				c22.98-1.741,43.008-4.787,60.271-8.465c-2.782,9.19-5.641,17.169-8.38,23.902c-1.775,4.369,0.324,9.344,4.685,11.119
				c1.058,0.435,2.142,0.631,3.208,0.631c3.379,0,6.571-2.005,7.91-5.316c3.823-9.387,7.868-20.992,11.614-34.901
				c14.02-3.78,25.719-7.868,35.157-11.716c4.36-1.775,6.46-6.758,4.676-11.127c-1.775-4.352-6.75-6.477-11.128-4.676
				c-6.793,2.773-14.839,5.675-24.141,8.482c3.678-17.254,6.724-37.282,8.465-60.262c18.961-2.662,34.628-5.623,47.027-8.397
				c4.599-1.033,7.492-5.598,6.46-10.197c-1.024-4.591-5.581-7.467-10.189-6.46c-11.29,2.526-25.378,5.205-42.266,7.671
				c0.35-8.098,0.555-16.478,0.555-25.233c0-8.747-0.205-17.135-0.555-25.225c16.393,2.389,30.131,4.983,41.182,7.424
				c4.565,1.024,9.148-1.886,10.172-6.494c1.015-4.599-1.886-9.148-6.494-10.172c-12.151-2.688-27.452-5.547-45.892-8.141
				c-1.741-22.98-4.787-43.017-8.465-60.271c9.19,2.782,17.169,5.641,23.902,8.38c1.058,0.435,2.142,0.631,3.209,0.631
				c3.379,0,6.571-2.005,7.91-5.316c1.775-4.369-0.324-9.344-4.685-11.119c-9.387-3.823-21.001-7.868-34.901-11.614
				c-3.746-13.909-7.791-25.515-11.614-34.901c-1.775-4.369-6.767-6.477-11.119-4.685c-4.361,1.775-6.46,6.75-4.685,11.119
				c2.739,6.733,5.598,14.711,8.38,23.902c-17.263-3.678-37.291-6.724-60.271-8.465c-2.611-18.534-5.487-33.903-8.192-46.097
				c-1.016-4.608-5.606-7.543-10.18-6.485c-4.599,1.024-7.501,5.572-6.477,10.172C276.221,123.873,278.832,137.671,281.23,154.157z
				 M136.539,290.136c0-9.6,0.239-18.756,0.674-27.529c19.465-2.355,42.163-4.318,68.053-5.478
				c-0.29,10.53-0.461,21.513-0.461,33.007s0.171,22.468,0.461,33.007c-25.899-1.161-48.589-3.123-68.053-5.478
				C136.778,308.892,136.539,299.736,136.539,290.136z M148.136,398.006c-4.181-17.519-7.74-38.468-9.771-63.044
				c19.499,2.287,41.975,4.181,67.516,5.299c1.109,25.532,3.004,48,5.291,67.516C186.595,405.746,165.646,402.187,148.136,398.006z
				 M205.881,240.011c-25.54,1.118-48.017,3.012-67.516,5.299c2.031-24.585,5.589-45.534,9.771-63.044
				c17.519-4.181,38.468-7.74,63.044-9.771C208.893,192.003,206.999,214.471,205.881,240.011z M363.875,398.006
				c-17.519,4.181-38.468,7.74-63.036,9.771c2.278-19.499,4.173-41.967,5.291-67.516c25.532-1.109,48-3.012,67.516-5.291
				C371.615,359.538,368.057,380.487,363.875,398.006z M375.472,290.136c0,9.6-0.239,18.756-0.674,27.529
				c-19.482,2.355-42.163,4.318-68.053,5.478c0.29-10.53,0.461-21.513,0.461-33.007s-0.171-22.468-0.461-33.007
				c25.899,1.161,48.589,3.123,68.053,5.478C375.233,271.38,375.472,280.536,375.472,290.136z M363.875,182.266
				c4.181,17.519,7.74,38.468,9.771,63.044c-19.507-2.287-41.975-4.181-67.516-5.299c-1.118-25.54-3.012-48.009-5.299-67.516
				C325.407,174.527,346.356,178.085,363.875,182.266z M283.534,408.929c-8.772,0.435-17.929,0.674-27.529,0.674
				s-18.756-0.239-27.529-0.674c-2.355-19.482-4.318-42.163-5.478-68.053c10.53,0.29,21.513,0.461,33.007,0.461
				s22.477-0.171,33.007-0.461C287.852,366.774,285.889,389.473,283.534,408.929z M290.139,290.136
				c0,11.742-0.188,22.929-0.495,33.638c-10.718,0.316-21.897,0.495-33.638,0.495s-22.929-0.179-33.638-0.495
				c-0.316-10.709-0.495-21.897-0.495-33.638c0-11.742,0.179-22.929,0.495-33.638c10.709-0.316,21.896-0.495,33.638-0.495
				s22.921,0.179,33.638,0.495C289.951,267.207,290.139,278.394,290.139,290.136z M283.534,171.344
				c2.355,19.465,4.318,42.163,5.478,68.053c-10.539-0.29-21.513-0.461-33.007-0.461s-22.468,0.171-33.007,0.461
				c1.161-25.89,3.123-48.589,5.478-68.053c8.772-0.435,17.929-0.674,27.529-0.674S274.762,170.908,283.534,171.344z"/>
			<path d="M62.239,134.036c1.664,1.664,3.849,2.5,6.033,2.5s4.369-0.836,6.033-2.5c3.337-3.337,3.337-8.73,0-12.066l-25.6-25.6
				c-3.336-3.337-8.73-3.337-12.066,0s-3.337,8.73,0,12.066L62.239,134.036z"/>
			<path d="M42.664,179.203c3.132,0,6.144-1.724,7.646-4.719c2.108-4.215,0.393-9.335-3.823-11.452l-34.133-17.067
				c-4.215-2.108-9.344-0.393-11.452,3.823c-2.108,4.216-0.393,9.336,3.823,11.452l34.133,17.067
				C40.078,178.913,41.384,179.203,42.664,179.203z"/>
		</g>
	</g>
</g>
<g>
</g>
<g>
</g>
<g>
</g>
<g>
</g>
<g>
</g>
<g>
</g>
<g>
</g>
<g>
</g>
<g>
</g>
<g>
</g>
<g>
</g>
<g>
</g>
<g>
</g>
<g>
</g>
<g>
</g>
</svg>
