<?xml version="1.0" encoding="iso-8859-1"?>
<!-- Generator: Adobe Illustrator 16.0.0, SVG Export Plug-In . SVG Version: 6.00 Build 0)  -->
<!DOCTYPE svg PUBLIC "-//W3C//DTD SVG 1.1//EN" "http://www.w3.org/Graphics/SVG/1.1/DTD/svg11.dtd">
<svg version="1.1" id="Capa_1" xmlns="http://www.w3.org/2000/svg" xmlns:xlink="http://www.w3.org/1999/xlink" x="0px" y="0px"
	 width="321.845px" height="321.845px" viewBox="0 0 321.845 321.845" style="enable-background:new 0 0 321.845 321.845;"
	 xml:space="preserve">
<g>
	<g>
		<path d="M204.331,54.468c17.748-0.612,36.108-0.612,53.856,0c-9.792-15.912-17.136-33.048-24.48-49.572
			C223.304,20.808,213.512,37.332,204.331,54.468L204.331,54.468z"/>
		<path d="M170.06,187.885c4.896-5.508,9.18-11.018,14.076-17.137c11.016-14.076,22.031-27.54,32.436-42.228
			c15.912-22.032,29.988-45.288,45.288-67.32c-18.972,2.448-38.556,3.06-58.14,3.06c-9.181,44.064-24.48,88.74-39.78,131.58h0.611
			C166.388,194.615,168.835,192.168,170.06,187.885z"/>
		<path d="M200.047,47.736C207.392,30.6,216.571,15.3,226.976,0c-19.584,1.836-39.168,2.448-58.752,3.672
			c2.447,3.06,4.283,6.12,5.508,8.568C182.911,23.868,192.091,36.108,200.047,47.736z"/>
		<path d="M118.651,54.468c6.12,0.612,12.24,1.224,18.36,1.224c18.972,0.612,38.556,0,58.14-0.612
			c-4.896-6.12-9.792-12.852-14.076-18.972c-4.896-6.732-11.016-20.808-17.748-25.092c-9.792-5.508-18.972,11.016-23.867,17.748
			C132.115,36.72,125.384,45.288,118.651,54.468z"/>
		<path d="M113.756,63.648c0,0.612,0.611,1.224,0.611,1.224c1.225,42.84,31.212,85.068,44.064,126.685
			c11.016-42.84,22.644-86.905,39.168-127.296c-14.688,0-28.765,0-42.84-0.612C140.684,63.648,127.22,63.648,113.756,63.648z"/>
		<path d="M115.592,50.184c6.731-11.016,14.076-22.032,22.031-32.436c2.448-2.448,6.12-8.568,10.404-13.464
			c-17.136,0.612-34.271,0.612-51.408,0.612c1.836,3.672,3.06,7.956,4.284,11.016C105.799,26.928,111.308,38.556,115.592,50.184z"/>
		<path d="M96.619,132.192c12.24,15.3,34.885,53.244,55.08,59.976c-9.792-19.584-17.136-40.392-25.704-60.588
			c-8.567-20.808-21.42-43.452-19.584-66.708c0-0.612,0-1.224,0.612-1.836c-22.032-0.612-44.064-1.224-65.484-3.06v2.448
			c0.612,0,1.224,0,1.836,0.612C61.735,86.292,78.259,109.548,96.619,132.192z"/>
		<path d="M109.471,53.856c-3.672-7.344-6.732-14.688-9.792-22.032c-2.448-5.508-4.284-11.016-6.732-15.912
			c-1.224-3.06-3.06-6.732-4.284-9.792c-1.836,0-3.06,1.224-3.672,3.06c-7.344,3.672-15.3,17.748-20.808,24.48
			c-6.732,7.956-13.464,15.3-20.196,22.644C64.795,50.184,87.439,52.02,109.471,53.856z"/>
		<path d="M283.279,308.447c-15.912-53.244-45.288-98.531-106.488-101.592c-59.363-3.059-106.488,37.332-137.088,84.457
			c-7.344,11.627,11.016,22.645,18.36,11.016c25.092-37.332,61.812-72.217,109.548-73.439c55.08-1.225,80.172,38.555,94.248,85.68
			C266.144,327.42,287.563,321.912,283.279,308.447z"/>
	</g>
</g>
<g>
</g>
<g>
</g>
<g>
</g>
<g>
</g>
<g>
</g>
<g>
</g>
<g>
</g>
<g>
</g>
<g>
</g>
<g>
</g>
<g>
</g>
<g>
</g>
<g>
</g>
<g>
</g>
<g>
</g>
</svg>
