<?xml version="1.0" encoding="iso-8859-1"?>
<!-- Generator: Adobe Illustrator 19.0.0, SVG Export Plug-In . SVG Version: 6.00 Build 0)  -->
<svg version="1.1" id="Capa_1" xmlns="http://www.w3.org/2000/svg" xmlns:xlink="http://www.w3.org/1999/xlink" x="0px" y="0px"
	 viewBox="0 0 512 512" style="enable-background:new 0 0 512 512;" xml:space="preserve">
<g>
	<g>
		<path d="M506.657,297.429c-9.734-39.957-33.406-75.239-66.654-99.346c-31.649-22.947-70.186-34.566-108.96-32.959
			c-17.873-38.357-48.992-68.665-88.151-85.679c-3.844-1.668-8.311,0.093-9.982,3.935c-1.669,3.843,0.092,8.312,3.935,9.982
			c37.248,16.183,66.529,45.529,82.451,82.631c3.485,8.121,6.31,16.581,8.396,25.146c0.554,2.274,1.065,4.613,1.562,7.152
			c0,0.002,0.001,0.004,0.001,0.005c7.596,38.77,0.449,78.75-20.125,112.577c-19.45,31.978-49.302,55.831-84.543,67.709
			c-0.636-1.446-1.244-2.906-1.825-4.378c-0.007-0.017-0.013-0.033-0.019-0.05c-1.117-2.832-2.125-5.712-3.035-8.627
			c-0.073-0.234-0.146-0.468-0.217-0.703c-0.421-1.377-0.822-2.762-1.196-4.155c-0.009-0.035-0.018-0.07-0.027-0.105
			c66.282-22.246,106.367-91.261,91.887-160.414c0-0.001,0-0.002,0-0.003c-0.357-1.706-0.678-3.134-1.009-4.493
			c-2.518-10.333-6.199-20.349-10.942-29.77c-0.01-0.02-0.021-0.038-0.031-0.058c-0.032-0.063-0.065-0.124-0.099-0.186
			c-13.927-27.522-37.042-49.929-65.123-63.108c-13.462-6.318-27.83-10.383-42.475-12.136l53.893-50.094
			c2.732-2.54,3.213-6.689,1.134-9.786l-0.036-0.053c-0.001-0.001-0.001-0.002-0.002-0.003L220.551,3.357
			C219.142,1.259,216.78,0,214.253,0h-80.75c-2.528,0-4.889,1.259-6.299,3.357l-24.953,37.161c-2.079,3.097-1.599,7.246,1.134,9.786
			l53.888,50.09c-5.487,0.655-10.948,1.632-16.349,2.947C66.337,121.512,20.439,196.977,38.608,271.564
			c7.491,30.75,25.422,58.268,50.49,77.487c23.031,17.657,51.227,27.745,80.023,28.732c0.138,0.595,0.278,1.185,0.42,1.772
			c0.338,1.388,0.696,2.766,1.066,4.138c0.086,0.318,0.178,0.636,0.265,0.954c0.302,1.097,0.613,2.189,0.935,3.275
			c0.089,0.299,0.18,0.598,0.271,0.897c0.352,1.163,0.715,2.32,1.089,3.47c0.064,0.198,0.128,0.396,0.193,0.594
			c0.449,1.362,0.91,2.716,1.39,4.06c-33.369,0.169-66.242-10.284-93.569-29.997c-30.499-22.002-52.206-54.272-61.12-90.865
			c-8.898-36.525-4.499-75.102,12.389-108.625c16.701-33.153,44.553-59.474,78.427-74.114c3.846-1.663,5.616-6.128,3.954-9.974
			c-1.663-3.845-6.129-5.618-9.974-3.954C67.726,95.463,37.199,124.306,18.9,160.63C0.392,197.371-4.43,239.648,5.32,279.673
			c9.769,40.1,33.559,75.464,66.985,99.578c29.667,21.402,65.306,32.869,101.534,32.868c2.358,0,4.719-0.063,7.081-0.16
			C209.399,472.938,271.184,512.001,338.103,512c13.553,0,27.32-1.603,41.059-4.95C472.105,484.408,529.299,390.373,506.657,297.429
			z M322.094,328.758c20.906-34.372,29.15-74.547,23.602-114.089c24.688,1.53,48.747,10.541,68.456,25.813
			c22.379,17.341,37.757,41.079,44.474,68.649c16.19,66.459-24.706,133.698-91.165,149.888c-32.193,7.844-65.514,2.68-93.825-14.539
			c-17.523-10.658-31.823-25.147-42.04-42.274C269.28,388.951,301.18,363.146,322.094,328.758z M215.222,355.562
			c-3.876-27.61,1.62-55.566,15.91-79.892c14.952-25.453,38.044-44.434,65.608-54.135
			C304.867,279.674,270.586,336.037,215.222,355.562z M137.546,15.173h72.662l14.727,21.932H122.82L137.546,15.173z M127.794,52.278
			h92.166l-46.083,42.835L127.794,52.278z M166.267,362.443c-24.463-1.505-48.31-10.385-67.936-25.433
			c-22.655-17.369-38.208-41.242-44.979-69.038c-16.19-66.458,24.706-133.698,91.165-149.889c27.796-6.772,56.148-3.94,81.99,8.187
			c22.39,10.507,41.219,27.599,53.824,48.632c-38.93,13.69-71.493,40.627-92.36,76.648
			C168.378,285.372,160.884,324.174,166.267,362.443z M375.571,492.308c-12.543,3.056-25.095,4.518-37.467,4.517
			c-62.996-0.005-121.013-37.948-145.81-96.643c-0.271-0.643-0.542-1.285-0.805-1.931c-0.106-0.261-0.208-0.524-0.313-0.785
			c-0.323-0.806-0.643-1.614-0.952-2.426c-0.046-0.121-0.09-0.243-0.136-0.365c-0.354-0.935-0.702-1.873-1.038-2.815
			c-0.011-0.03-0.021-0.061-0.032-0.091c-0.363-1.017-0.716-2.038-1.058-3.063c-0.002-0.006-0.004-0.011-0.006-0.017
			c-0.347-1.039-0.683-2.081-1.008-3.126c-0.023-0.074-0.044-0.149-0.067-0.223c-0.301-0.974-0.595-1.949-0.877-2.927
			c-0.092-0.32-0.178-0.643-0.269-0.965c-0.209-0.74-0.418-1.48-0.616-2.223c-0.288-1.082-0.566-2.169-0.832-3.262
			c-0.27-1.107-0.523-2.216-0.768-3.326c-0.095-0.432-0.188-0.874-0.281-1.315c-0.107-0.505-0.21-1.01-0.312-1.515
			c-0.067-0.332-0.134-0.659-0.201-0.998c-0.009-0.046-0.023-0.089-0.032-0.134c-7.33-37.585-0.891-76.201,18.41-109.52
			c19.4-33.49,49.875-58.373,86.283-70.634c2.555,5.811,4.67,11.84,6.32,18.01c-31.829,10.663-58.509,32.268-75.652,61.451
			c-17.646,30.037-23.34,65.006-16.228,98.962c0,0.002,0.001,0.005,0.001,0.007c0.003,0.017,0.007,0.031,0.01,0.048
			c0.126,0.601,0.254,1.201,0.388,1.801c0.206,0.935,0.407,1.807,0.611,2.645c0.3,1.231,0.619,2.454,0.95,3.672
			c0.081,0.298,0.169,0.595,0.252,0.893c0.264,0.946,0.535,1.889,0.817,2.826c0.085,0.283,0.174,0.564,0.262,0.846
			c0.305,0.989,0.62,1.974,0.945,2.954c0.066,0.197,0.132,0.393,0.198,0.589c0.381,1.131,0.777,2.255,1.186,3.372
			c0.015,0.04,0.029,0.08,0.044,0.12c10.804,29.436,31.08,54.189,58.267,70.725c22.086,13.433,46.886,20.329,72.093,20.328
			c11.055,0,22.192-1.327,33.208-4.011c74.587-18.17,120.485-93.635,102.315-168.222c-7.538-30.941-24.801-57.585-49.923-77.051
			c-23.113-17.909-51.562-28.169-80.59-29.164c-0.138-0.597-0.278-1.189-0.422-1.777c-1.428-5.864-3.173-11.684-5.213-17.395
			c33.493-0.2,66.498,10.367,93.874,30.216c30.337,21.995,51.935,54.19,60.819,90.653
			C512.576,385.835,460.385,471.646,375.571,492.308z"/>
	</g>
</g>
<g>
</g>
<g>
</g>
<g>
</g>
<g>
</g>
<g>
</g>
<g>
</g>
<g>
</g>
<g>
</g>
<g>
</g>
<g>
</g>
<g>
</g>
<g>
</g>
<g>
</g>
<g>
</g>
<g>
</g>
</svg>
