<?xml version='1.0' encoding='iso-8859-1'?>
<!DOCTYPE svg PUBLIC '-//W3C//DTD SVG 1.1//EN' 'http://www.w3.org/Graphics/SVG/1.1/DTD/svg11.dtd'>
<svg version="1.1" xmlns="http://www.w3.org/2000/svg" viewBox="0 0 512 512" xmlns:xlink="http://www.w3.org/1999/xlink" enable-background="new 0 0 512 512">
  <path d="m298.719,300.516c-5.545-7.574-11.673-15.979-16.689-23.641l13.126-6.563c7.906-3.953 11.109-13.563 7.156-21.469-2.35-4.709-6.759-7.47-11.573-8.322l4.417-2.209c7.906-3.953 11.109-13.563 7.156-21.469-2.352-4.705-6.77-7.464-11.591-8.314l4.435-2.217c7.906-3.953 11.109-13.563 7.156-21.469-2.35-4.709-6.759-7.47-11.573-8.322l4.417-2.209c7.906-3.953 11.109-13.563 7.156-21.469-3.945-7.906-13.555-11.094-21.469-7.156l-8.843,4.422v-134.109c0-8.844-7.164-16-16-16-8.836,0-16,7.156-16,16v150.109l-23.156,11.578c-7.906,3.953-11.109,13.563-7.156,21.469 2.321,4.643 6.615,7.533 11.349,8.436l-4.192,2.096c-7.906,3.953-11.109,13.563-7.156,21.469 2.321,4.643 6.615,7.533 11.349,8.436l-4.192,2.096c-7.906,3.953-11.109,13.563-7.156,21.469 2.321,4.642 6.615,7.533 11.349,8.435l-4.192,2.096c-7.906,3.953-11.109,13.563-7.156,21.469 0.981,1.963 2.395,3.514 3.96,4.857-0.12,0.164-0.247,0.339-0.366,0.502-23.738,32.405-53.285,72.764-53.285,115.483 0,61.016 34.992,96 96,96s96-34.984 96-96c0-42.719-29.547-83.078-53.281-115.484zm-42.719,179.484c-43.664,0-64-20.344-64-64 0-32.266 26.117-67.922 47.102-96.594 6.211-8.469 11.984-16.359 16.898-23.781 4.914,7.422 10.687,15.313 16.898,23.781 20.985,28.672 47.102,64.328 47.102,96.594 0,43.656-20.336,64-64,64z"/>
</svg>
